<?xml version="1.0" encoding="UTF-8"?>
<svg version="1.1" xmlns="http://www.w3.org/2000/svg" width="512" height="512">
<path d="M0 0 C2.4541569 1.93776767 4.58705088 4.1418322 6.75219727 6.39331055 C7.39853119 7.04869812 8.04486511 7.70408569 8.71078491 8.3793335 C10.10818043 9.79859135 11.500992 11.2223741 12.88968086 12.65015221 C15.08671162 14.90758234 17.29689939 17.15133023 19.51121521 19.39179993 C25.80229824 25.76235299 32.0675067 32.15814322 38.3269043 38.55981445 C42.15973507 42.477897 46.00693848 46.38139544 49.86305046 50.27655983 C51.33013897 51.76482422 52.79136446 53.25889141 54.24661446 54.75873375 C56.27680812 56.85106711 58.32457145 58.92457679 60.37719727 60.99487305 C61.27584251 61.93530205 61.27584251 61.93530205 62.19264221 62.89472961 C65.33431754 66.06643101 65.33431754 66.06643101 69.5 67.26582336 C73.20694768 65.38888697 75.7563765 62.72477083 78.62280273 59.75195312 C79.26738434 59.09992416 79.91196594 58.4478952 80.57608032 57.77610779 C81.97295661 56.36067727 83.36522341 54.94068619 84.75338554 53.51670837 C86.95100479 51.26339774 89.161301 49.02326453 91.37550354 46.78625488 C96.8719919 41.22829179 102.34849125 35.65079209 107.82080078 30.06903076 C112.44563791 25.35211038 117.08013444 20.64514623 121.7292347 15.95213318 C123.90732998 13.74535958 126.07027188 11.52442344 128.23326111 9.30285645 C129.57066478 7.95048454 130.90880621 6.59884169 132.24780273 5.24804688 C132.84487534 4.62671371 133.44194794 4.00538055 134.05711365 3.36521912 C137.51678204 -0.08775573 139.86845815 -1.94881851 145 -2 C149.56521739 0.13043478 149.56521739 0.13043478 151 3 C151.53268448 6.32927799 151.79148782 8.8427713 149.82078552 11.72412109 C144.25923665 17.82821591 138.45038198 23.67703794 132.59765625 29.5 C131.50884896 30.58693803 130.42026534 31.67410015 129.33189392 32.76147461 C126.49175111 35.59783223 123.6486164 38.43117164 120.80480957 41.26385498 C117.89342109 44.16494253 114.98492533 47.06892713 112.07617188 49.97265625 C106.3869133 55.65124818 100.69448501 61.32664916 95 67 C96.66678047 67.00879936 96.66678047 67.00879936 98.36723328 67.01777649 C108.88536596 67.07521388 119.40329606 67.14808374 129.92122173 67.23571491 C135.32742992 67.28027072 140.7335653 67.31955881 146.13989258 67.34643555 C151.36609232 67.37261684 156.59200965 67.41312219 161.81803322 67.46318626 C163.80287959 67.47975533 165.7877747 67.49133116 167.77268028 67.49761391 C188.18539748 67.56870746 205.20774808 70.20574068 220.3046875 85.14453125 C230.03677174 95.45489875 236.09697949 107.59354977 236.14717102 121.89172363 C236.15084771 122.5728602 236.1545244 123.25399676 236.1583125 123.95577383 C236.16929986 126.23159134 236.17318478 128.50736312 236.17700195 130.78320312 C236.18327052 132.41800072 236.18991767 134.05279691 236.19691467 135.68759155 C236.21791689 141.05213435 236.22831588 146.4166773 236.23828125 151.78125 C236.24233073 153.63242101 236.24644771 155.48359187 236.25063133 157.33476257 C236.26967734 166.03632409 236.28390764 174.73787717 236.2922433 183.43945551 C236.30200323 193.46072505 236.32829269 203.48177298 236.36874419 213.5029645 C236.39898491 221.26286642 236.41371984 229.02270511 236.41702431 236.78266478 C236.41936639 241.41035019 236.42821606 246.03779871 236.45348549 250.66542053 C236.47690987 255.02560308 236.48094228 259.38539518 236.47072411 263.74562454 C236.47023205 265.33661326 236.47645382 266.92762215 236.49028015 268.51855087 C236.64097401 286.90273542 231.53947868 302.01855152 218.69921875 315.4921875 C214.49266806 319.40044443 210.064913 322.32022608 205 325 C204.11054688 325.47179687 203.22109375 325.94359375 202.3046875 326.4296875 C192.47689505 331.05614133 180.84703717 333 170 333 C170.30292969 333.53890869 170.60585938 334.07781738 170.91796875 334.63305664 C172.2940646 337.10129625 173.64705885 339.58149847 175 342.0625 C175.47695313 342.91005859 175.95390625 343.75761719 176.4453125 344.63085938 C179.12160945 349.58200874 180.79864599 353.21541456 180 359 C178.09151767 361.68601216 176.67450962 362.7337462 173.625 363.9375 C169.84954582 364.02739177 168.17268811 363.08894811 165 361 C162.93487476 358.11023557 161.41869433 355.00458718 159.875 351.8125 C159.45863281 350.98685547 159.04226563 350.16121094 158.61328125 349.31054688 C157.79013498 347.67328573 156.97581463 346.03155393 156.17089844 344.38525391 C155.03904869 342.07954664 153.86887127 339.79639098 152.6953125 337.51171875 C151 334 151 334 151 332 C150.22769421 332.00515373 149.45538841 332.01030746 148.65967941 332.01561737 C129.82869896 332.14125232 110.9977156 332.26644504 92.16672897 332.39115143 C83.06004443 332.45147012 73.95336091 332.51193602 64.84667969 332.57275391 C56.90514546 332.62579012 48.96360942 332.67854458 41.02207112 332.73096704 C36.82089301 332.75870889 32.61971591 332.78658752 28.41854095 332.81480408 C24.45580007 332.84141477 20.49305684 332.86764574 16.53031158 332.89359856 C15.08404957 332.90313497 13.63778843 332.91280436 12.19152832 332.92262459 C3.79420422 332.97955457 -4.60247772 333.01298821 -13 333 C-13.4577179 333.8738031 -13.4577179 333.8738031 -13.92468262 334.76525879 C-15.17772059 337.15665467 -16.43264969 339.54705465 -17.6875 341.9375 C-18.34008789 343.18370117 -18.34008789 343.18370117 -19.00585938 344.45507812 C-19.88823189 346.13485394 -20.77482608 347.81241859 -21.66552734 349.48779297 C-22.55588239 351.16392788 -23.4364304 352.84530878 -24.30712891 354.53173828 C-24.72784668 355.32692871 -25.14856445 356.12211914 -25.58203125 356.94140625 C-26.13661011 358.00597046 -26.13661011 358.00597046 -26.70239258 359.09204102 C-28.85051694 362.25057194 -31.06324109 363.76581027 -34.75 364.6875 C-35.4925 364.790625 -36.235 364.89375 -37 365 C-37 364.34 -37 363.68 -37 363 C-37.61875 362.731875 -38.2375 362.46375 -38.875 362.1875 C-41 361 -41 361 -43 358 C-42.83516923 351.34943663 -40.67416515 346.71992586 -37.4375 341 C-36.80038086 339.83791016 -36.80038086 339.83791016 -36.15039062 338.65234375 C-35.11178658 336.761851 -34.05749488 334.8799909 -33 333 C-34.77503906 332.83564453 -34.77503906 332.83564453 -36.5859375 332.66796875 C-56.57674792 330.71078208 -73.16926692 325.21262118 -86.41015625 309.10546875 C-96.55249751 295.67371951 -98.61164747 281.64802031 -98.51757812 265.26513672 C-98.5230147 263.64856338 -98.53014588 262.03199501 -98.53881836 260.41543579 C-98.55686953 256.07248805 -98.55006134 251.7299254 -98.53730202 247.38697195 C-98.52708237 242.81535497 -98.536592 238.24376811 -98.54284668 233.67214966 C-98.55009577 226.00126299 -98.54060619 218.33053107 -98.52148438 210.65966797 C-98.49970536 201.82139638 -98.50678553 192.98349384 -98.52879 184.14523113 C-98.54700389 176.52097753 -98.54947364 168.89683431 -98.53903532 161.27256596 C-98.53283517 156.73449419 -98.5318683 152.19659531 -98.54518127 147.658535 C-98.55682749 143.39172908 -98.54855601 139.12539435 -98.52560425 134.85863876 C-98.52036425 133.30313902 -98.521749 131.74759886 -98.53065491 130.19211578 C-98.62637774 111.75897029 -93.28402855 96.87630269 -80.51123047 83.44140625 C-68.53847878 72.02183824 -53.1977874 67.90993968 -37.03540039 67.79467773 C-36.16631042 67.78477814 -35.29722046 67.77487854 -34.40179443 67.76467896 C-31.55044204 67.73327934 -28.69907304 67.70839236 -25.84765625 67.68359375 C-23.86225469 67.66300559 -21.87685734 67.64200864 -19.89146423 67.62062073 C-14.68178726 67.56559232 -9.47207199 67.5160987 -4.2623291 67.46777344 C1.06017438 67.41741747 6.38262269 67.36180518 11.70507812 67.30664062 C22.13667154 67.19929448 32.568313 67.09779781 43 67 C42.24067169 66.41461456 41.48134338 65.82922913 40.69900513 65.22610474 C38.44042173 63.36325418 36.67046975 61.62133488 34.81591797 59.38232422 C30.45187205 54.28547264 25.7094887 49.60312487 20.9453125 44.8828125 C19.99334711 43.93526338 19.04168226 42.98741224 18.09030151 42.03927612 C15.10470643 39.06498998 12.11513736 36.09471867 9.125 33.125 C5.6362152 29.65985667 2.14909978 26.19306549 -1.33386612 22.7220726 C-2.72394501 21.33846999 -4.11706516 19.95792505 -5.51022339 18.5774231 C-6.34844635 17.74250336 -7.18666931 16.90758362 -8.05029297 16.04736328 C-8.7908493 15.31204376 -9.53140564 14.57672424 -10.29440308 13.81912231 C-12.70573105 11.24729514 -12.97952556 10.22112391 -13.3125 6.625 C-13 3 -13 3 -11.1875 0.625 C-6.94497081 -2.52659312 -4.66437576 -2.10841658 0 0 Z " fill="#95C7DA" transform="translate(187,65)"/>
<path d="M0 0 C2.4541569 1.93776767 4.58705088 4.1418322 6.75219727 6.39331055 C7.39853119 7.04869812 8.04486511 7.70408569 8.71078491 8.3793335 C10.10818043 9.79859135 11.500992 11.2223741 12.88968086 12.65015221 C15.08671162 14.90758234 17.29689939 17.15133023 19.51121521 19.39179993 C25.80229824 25.76235299 32.0675067 32.15814322 38.3269043 38.55981445 C42.15973507 42.477897 46.00693848 46.38139544 49.86305046 50.27655983 C51.33013897 51.76482422 52.79136446 53.25889141 54.24661446 54.75873375 C56.27680812 56.85106711 58.32457145 58.92457679 60.37719727 60.99487305 C61.27584251 61.93530205 61.27584251 61.93530205 62.19264221 62.89472961 C65.33431754 66.06643101 65.33431754 66.06643101 69.5 67.26582336 C73.20694768 65.38888697 75.7563765 62.72477083 78.62280273 59.75195312 C79.26738434 59.09992416 79.91196594 58.4478952 80.57608032 57.77610779 C81.97295661 56.36067727 83.36522341 54.94068619 84.75338554 53.51670837 C86.95100479 51.26339774 89.161301 49.02326453 91.37550354 46.78625488 C96.8719919 41.22829179 102.34849125 35.65079209 107.82080078 30.06903076 C112.44563791 25.35211038 117.08013444 20.64514623 121.7292347 15.95213318 C123.90732998 13.74535958 126.07027188 11.52442344 128.23326111 9.30285645 C129.57066478 7.95048454 130.90880621 6.59884169 132.24780273 5.24804688 C132.84487534 4.62671371 133.44194794 4.00538055 134.05711365 3.36521912 C137.51678204 -0.08775573 139.86845815 -1.94881851 145 -2 C149.56521739 0.13043478 149.56521739 0.13043478 151 3 C151.53268448 6.32927799 151.79148782 8.8427713 149.82078552 11.72412109 C144.25923665 17.82821591 138.45038198 23.67703794 132.59765625 29.5 C131.50884896 30.58693803 130.42026534 31.67410015 129.33189392 32.76147461 C126.49175111 35.59783223 123.6486164 38.43117164 120.80480957 41.26385498 C117.89342109 44.16494253 114.98492533 47.06892713 112.07617188 49.97265625 C106.3869133 55.65124818 100.69448501 61.32664916 95 67 C96.66678047 67.00879936 96.66678047 67.00879936 98.36723328 67.01777649 C108.88536596 67.07521388 119.40329606 67.14808374 129.92122173 67.23571491 C135.32742992 67.28027072 140.7335653 67.31955881 146.13989258 67.34643555 C151.36609232 67.37261684 156.59200965 67.41312219 161.81803322 67.46318626 C163.80287959 67.47975533 165.7877747 67.49133116 167.77268028 67.49761391 C188.18539748 67.56870746 205.20774808 70.20574068 220.3046875 85.14453125 C230.03677174 95.45489875 236.09697949 107.59354977 236.14717102 121.89172363 C236.15084771 122.5728602 236.1545244 123.25399676 236.1583125 123.95577383 C236.16929986 126.23159134 236.17318478 128.50736312 236.17700195 130.78320312 C236.18327052 132.41800072 236.18991767 134.05279691 236.19691467 135.68759155 C236.21791689 141.05213435 236.22831588 146.4166773 236.23828125 151.78125 C236.24233073 153.63242101 236.24644771 155.48359187 236.25063133 157.33476257 C236.26967734 166.03632409 236.28390764 174.73787717 236.2922433 183.43945551 C236.30200323 193.46072505 236.32829269 203.48177298 236.36874419 213.5029645 C236.39898491 221.26286642 236.41371984 229.02270511 236.41702431 236.78266478 C236.41936639 241.41035019 236.42821606 246.03779871 236.45348549 250.66542053 C236.47690987 255.02560308 236.48094228 259.38539518 236.47072411 263.74562454 C236.47023205 265.33661326 236.47645382 266.92762215 236.49028015 268.51855087 C236.64097401 286.90273542 231.53947868 302.01855152 218.69921875 315.4921875 C214.49266806 319.40044443 210.064913 322.32022608 205 325 C204.11054688 325.47179687 203.22109375 325.94359375 202.3046875 326.4296875 C192.47689505 331.05614133 180.84703717 333 170 333 C170.30292969 333.53890869 170.60585938 334.07781738 170.91796875 334.63305664 C172.2940646 337.10129625 173.64705885 339.58149847 175 342.0625 C175.47695313 342.91005859 175.95390625 343.75761719 176.4453125 344.63085938 C179.12160945 349.58200874 180.79864599 353.21541456 180 359 C178.09151767 361.68601216 176.67450962 362.7337462 173.625 363.9375 C169.84954582 364.02739177 168.17268811 363.08894811 165 361 C162.93487476 358.11023557 161.41869433 355.00458718 159.875 351.8125 C159.45863281 350.98685547 159.04226563 350.16121094 158.61328125 349.31054688 C157.79013498 347.67328573 156.97581463 346.03155393 156.17089844 344.38525391 C155.03904869 342.07954664 153.86887127 339.79639098 152.6953125 337.51171875 C151 334 151 334 151 332 C150.22769421 332.00515373 149.45538841 332.01030746 148.65967941 332.01561737 C129.82869896 332.14125232 110.9977156 332.26644504 92.16672897 332.39115143 C83.06004443 332.45147012 73.95336091 332.51193602 64.84667969 332.57275391 C56.90514546 332.62579012 48.96360942 332.67854458 41.02207112 332.73096704 C36.82089301 332.75870889 32.61971591 332.78658752 28.41854095 332.81480408 C24.45580007 332.84141477 20.49305684 332.86764574 16.53031158 332.89359856 C15.08404957 332.90313497 13.63778843 332.91280436 12.19152832 332.92262459 C3.79420422 332.97955457 -4.60247772 333.01298821 -13 333 C-13.4577179 333.8738031 -13.4577179 333.8738031 -13.92468262 334.76525879 C-15.17772059 337.15665467 -16.43264969 339.54705465 -17.6875 341.9375 C-18.34008789 343.18370117 -18.34008789 343.18370117 -19.00585938 344.45507812 C-19.88823189 346.13485394 -20.77482608 347.81241859 -21.66552734 349.48779297 C-22.55588239 351.16392788 -23.4364304 352.84530878 -24.30712891 354.53173828 C-24.72784668 355.32692871 -25.14856445 356.12211914 -25.58203125 356.94140625 C-26.13661011 358.00597046 -26.13661011 358.00597046 -26.70239258 359.09204102 C-28.85051694 362.25057194 -31.06324109 363.76581027 -34.75 364.6875 C-35.4925 364.790625 -36.235 364.89375 -37 365 C-37 364.34 -37 363.68 -37 363 C-37.61875 362.731875 -38.2375 362.46375 -38.875 362.1875 C-41 361 -41 361 -43 358 C-42.83516923 351.34943663 -40.67416515 346.71992586 -37.4375 341 C-36.80038086 339.83791016 -36.80038086 339.83791016 -36.15039062 338.65234375 C-35.11178658 336.761851 -34.05749488 334.8799909 -33 333 C-34.77503906 332.83564453 -34.77503906 332.83564453 -36.5859375 332.66796875 C-56.57674792 330.71078208 -73.16926692 325.21262118 -86.41015625 309.10546875 C-96.55249751 295.67371951 -98.61164747 281.64802031 -98.51757812 265.26513672 C-98.5230147 263.64856338 -98.53014588 262.03199501 -98.53881836 260.41543579 C-98.55686953 256.07248805 -98.55006134 251.7299254 -98.53730202 247.38697195 C-98.52708237 242.81535497 -98.536592 238.24376811 -98.54284668 233.67214966 C-98.55009577 226.00126299 -98.54060619 218.33053107 -98.52148438 210.65966797 C-98.49970536 201.82139638 -98.50678553 192.98349384 -98.52879 184.14523113 C-98.54700389 176.52097753 -98.54947364 168.89683431 -98.53903532 161.27256596 C-98.53283517 156.73449419 -98.5318683 152.19659531 -98.54518127 147.658535 C-98.55682749 143.39172908 -98.54855601 139.12539435 -98.52560425 134.85863876 C-98.52036425 133.30313902 -98.521749 131.74759886 -98.53065491 130.19211578 C-98.62637774 111.75897029 -93.28402855 96.87630269 -80.51123047 83.44140625 C-68.53847878 72.02183824 -53.1977874 67.90993968 -37.03540039 67.79467773 C-36.16631042 67.78477814 -35.29722046 67.77487854 -34.40179443 67.76467896 C-31.55044204 67.73327934 -28.69907304 67.70839236 -25.84765625 67.68359375 C-23.86225469 67.66300559 -21.87685734 67.64200864 -19.89146423 67.62062073 C-14.68178726 67.56559232 -9.47207199 67.5160987 -4.2623291 67.46777344 C1.06017438 67.41741747 6.38262269 67.36180518 11.70507812 67.30664062 C22.13667154 67.19929448 32.568313 67.09779781 43 67 C42.24067169 66.41461456 41.48134338 65.82922913 40.69900513 65.22610474 C38.44042173 63.36325418 36.67046975 61.62133488 34.81591797 59.38232422 C30.45187205 54.28547264 25.7094887 49.60312487 20.9453125 44.8828125 C19.99334711 43.93526338 19.04168226 42.98741224 18.09030151 42.03927612 C15.10470643 39.06498998 12.11513736 36.09471867 9.125 33.125 C5.6362152 29.65985667 2.14909978 26.19306549 -1.33386612 22.7220726 C-2.72394501 21.33846999 -4.11706516 19.95792505 -5.51022339 18.5774231 C-6.34844635 17.74250336 -7.18666931 16.90758362 -8.05029297 16.04736328 C-8.7908493 15.31204376 -9.53140564 14.57672424 -10.29440308 13.81912231 C-12.70573105 11.24729514 -12.97952556 10.22112391 -13.3125 6.625 C-13 3 -13 3 -11.1875 0.625 C-6.94497081 -2.52659312 -4.66437576 -2.10841658 0 0 Z M-75.171875 100.48828125 C-80.18986384 107.38265481 -83.11673088 115.02226603 -83.14717102 123.50608826 C-83.15084771 124.16988733 -83.1545244 124.8336864 -83.1583125 125.5176006 C-83.16934406 127.7466862 -83.17319236 129.97572517 -83.17700195 132.20483398 C-83.1832673 133.80155078 -83.18991417 135.39826612 -83.19691467 136.99497986 C-83.21795951 142.24534082 -83.22832156 147.49570208 -83.23828125 152.74609375 C-83.24232949 154.55580218 -83.24644643 156.36551046 -83.25063133 158.17521858 C-83.26968866 166.68296606 -83.28391517 175.19070486 -83.2922433 183.69846958 C-83.30200005 193.50299954 -83.32827632 203.30730279 -83.36874419 213.11175293 C-83.39897697 220.69835197 -83.41371919 228.28488634 -83.41702431 235.87154442 C-83.41936782 240.39806651 -83.42823583 244.92434658 -83.45348549 249.45080376 C-83.47689502 253.71657003 -83.48094815 257.98193719 -83.47072411 262.24775124 C-83.47023165 263.80529488 -83.47646557 265.36285903 -83.49028015 266.92034149 C-83.61238057 281.51446228 -80.88141396 292.91182929 -71 304 C-60.24214481 314.10074361 -48.73680935 317.3203236 -34.22244263 317.26742554 C-32.82575153 317.27422221 -32.82575153 317.27422221 -31.40084445 317.28115618 C-28.3090073 317.2937248 -25.217348 317.29218472 -22.12548828 317.29052734 C-19.89720434 317.29651721 -17.66892248 317.30332381 -15.44064331 317.31088257 C-9.40755314 317.32850078 -3.37451976 317.33323612 2.65859365 317.33451414 C6.43207097 317.3359384 10.20553397 317.34021316 13.97900772 317.34550858 C26.47610222 317.36304078 38.9731646 317.37235055 51.47026883 317.37084763 C52.47861125 317.37072776 52.47861125 317.37072776 53.50732422 317.37060547 C54.18038165 317.37052371 54.85343907 317.37044195 55.54689218 317.37035771 C66.45370565 317.36954486 77.36038102 317.38868786 88.26715456 317.4168822 C99.49081915 317.4456648 110.71441858 317.45905399 121.93812764 317.45769465 C128.22955527 317.45718571 134.5208264 317.46283215 140.81222153 317.48405075 C146.73028329 317.50346693 152.64803975 317.50353425 158.56611252 317.48901749 C160.7315872 317.48693267 162.89708117 317.49161061 165.06252289 317.5037384 C181.04930022 317.58743984 194.02888885 316.44064861 207 306 C212.5020646 300.41471089 216.36182869 294.36598326 219 287 C219.34075876 286.10632815 219.68151752 285.21265631 220.03260231 284.2919035 C221.07725897 280.73709977 221.2569994 277.82684295 221.26742554 274.12641907 C221.27422221 273.1258172 221.27422221 273.1258172 221.28115618 272.10500115 C221.29375695 269.88283606 221.29218264 267.66091743 221.29052734 265.4387207 C221.29651544 263.83993721 221.30332163 262.24115659 221.31088257 260.64237976 C221.32852444 256.30740846 221.33323727 251.97251617 221.33451414 247.63751245 C221.3359377 244.92540371 221.34021125 242.21331493 221.34550858 239.50121117 C221.36400516 230.02854517 221.37217994 220.5559354 221.37060547 211.08325195 C221.36940523 202.2718496 221.39048547 193.46069266 221.4220928 184.64935237 C221.4483047 177.07034196 221.45897066 169.49141143 221.45769465 161.91235608 C221.45718632 157.39207305 221.46279747 152.87200804 221.48405075 148.3517704 C221.50351533 144.09579775 221.50350191 139.84024917 221.48901749 135.58426094 C221.48693821 134.02952703 221.49157732 132.47476601 221.5037384 130.92007828 C221.60810409 116.64353685 218.74317953 105.7828992 209 95 C198.20814998 85.63316077 187.42798337 82.85407003 173.43135071 82.84609985 C172.01400321 82.83952647 172.01400321 82.83952647 170.56802243 82.8328203 C167.41163849 82.81949889 164.25528243 82.81326852 161.09887695 82.80712891 C158.83162817 82.79922283 156.56438063 82.79095357 154.2971344 82.78234863 C146.86086214 82.75619202 139.42458441 82.74082961 131.98828125 82.7265625 C129.42448613 82.72120064 126.86069104 82.71582312 124.29689598 82.71043015 C113.6311667 82.6888128 102.96544024 82.66992589 92.29969501 82.65880775 C89.53646656 82.65587846 86.77323813 82.65291673 84.01000977 82.64990234 C83.32329337 82.64915629 82.63657698 82.64841024 81.929051 82.64764158 C70.80863252 82.63499207 59.68837405 82.60176842 48.56803034 82.56010051 C37.13201348 82.51760333 25.69611794 82.49451118 14.26001519 82.48888719 C7.84664693 82.48523839 1.43355047 82.47326597 -4.97974205 82.44078445 C-11.01516235 82.41065302 -17.05014707 82.40441044 -23.0856266 82.41616821 C-25.29464977 82.4163885 -27.50369347 82.40812069 -29.71264648 82.39051437 C-48.88817474 82.24605401 -62.17782361 85.42234372 -75.171875 100.48828125 Z " fill="#664835" transform="translate(187,65)"/>
<path d="M0 0 C0.9461606 -0.00311998 1.89232121 -0.00623996 2.86715335 -0.00945449 C6.03370681 -0.01742387 9.20006808 -0.01111484 12.36662292 -0.00482178 C14.63859164 -0.00753216 16.91055947 -0.01109336 19.18252563 -0.01544189 C25.35202125 -0.02456405 31.52145002 -0.0210219 37.69094682 -0.01468372 C44.14897737 -0.00962102 50.60700218 -0.01431611 57.06503296 -0.01745605 C68.60864201 -0.02132886 80.15221689 -0.01511054 91.69582059 -0.00493738 C102.15088176 0.00399153 112.6058985 0.00245114 123.06095886 -0.0067749 C135.21164826 -0.01749229 147.36230279 -0.02145384 159.51299781 -0.01555037 C165.94127099 -0.01243507 172.3695136 -0.01200913 178.79778481 -0.01862335 C184.84457881 -0.02441024 190.89128913 -0.02037524 196.93807411 -0.00883484 C199.15478883 -0.0061951 201.37151062 -0.00694161 203.5882225 -0.01136017 C206.61953765 -0.01684429 209.65058647 -0.00994656 212.68188477 0 C213.55427648 -0.00446144 214.42666819 -0.00892289 215.32549602 -0.01351953 C226.92913372 0.06007135 237.47652574 3.46589995 246.84391785 10.50396729 C258.34050448 22.2679164 261.14111438 34.35003655 261.04899597 50.36700439 C261.05442691 51.96490616 261.06155498 53.5628029 261.07023621 55.16069031 C261.08835868 59.47075119 261.08144785 63.78042596 261.06871986 68.09049296 C261.05853262 72.61989362 261.0680015 77.14926309 261.07426453 81.67866516 C261.0815251 89.28349692 261.07199589 96.88817289 261.05290222 104.49298096 C261.03114437 113.25961744 261.03818333 122.02588158 261.06020784 130.79250902 C261.07841668 138.34532967 261.08089323 145.89803886 261.07045317 153.45087439 C261.06424726 157.95040929 261.06330184 162.44976975 261.07659912 166.94929314 C261.08823695 171.18239267 261.07998879 175.41501686 261.05702209 179.64806557 C261.05177668 181.19269399 261.05317643 182.73736309 261.06207275 184.28197479 C261.13741074 198.702778 258.47720466 210.39036458 248.53141785 221.25396729 C241.91334055 227.22026424 235.0197944 230.7160574 226.53141785 233.25396729 C225.54141785 233.58396729 224.55141785 233.91396729 223.53141785 234.25396729 C220.54517504 234.35469534 217.5821384 234.39738287 214.59564209 234.39440918 C213.67049567 234.3973803 212.74534924 234.40035142 211.79216808 234.40341258 C208.67863095 234.41211411 205.5651322 234.41360909 202.45158386 234.4151001 C200.22433388 234.41972742 197.99708469 234.42475196 195.76983643 234.43014526 C189.70741851 234.44328366 183.64501169 234.44971758 177.58258176 234.45415592 C173.79390326 234.45708565 170.0052278 234.46119037 166.21655083 234.4656601 C155.71911689 234.47777336 145.22168474 234.48815273 134.72424412 234.49153519 C134.05225286 234.49175475 133.3802616 234.49197432 132.68790698 234.49220054 C132.01432865 234.49241882 131.34075032 234.49263709 130.64676052 234.49286199 C129.28189695 234.49330545 127.91703337 234.49375201 126.5521698 234.49420166 C125.87515386 234.49442309 125.19813792 234.49464452 124.50060635 234.49487266 C113.54811067 234.49881457 102.59568177 234.51624849 91.64321185 234.53956118 C80.38813434 234.5633236 69.13308908 234.57548183 57.87798256 234.5769031 C51.56300029 234.57794989 45.24811208 234.58383039 38.93315315 234.60172272 C32.98650526 234.61824251 27.04002171 234.62033985 21.09335899 234.61158371 C18.91660242 234.61081531 16.73983687 234.61512998 14.56310272 234.62504196 C-3.051763 234.70051463 -18.09101296 233.69533344 -31.6209259 221.18756104 C-42.28415438 210.02836845 -44.07185254 196.87480786 -44.00202942 182.02740479 C-44.00910265 180.42935394 -44.01785351 178.83130978 -44.02813721 177.23327637 C-44.05048173 172.92742196 -44.04772709 168.62193769 -44.03881574 164.31604767 C-44.03367642 160.7078551 -44.041022 157.0997303 -44.04828781 153.49154472 C-44.06523878 144.97413995 -44.06176891 136.45691456 -44.04499817 127.93951416 C-44.02807313 119.18018422 -44.04392747 110.42135252 -44.07622105 101.66207695 C-44.10298701 94.11347732 -44.11017435 86.56503213 -44.10170597 79.01638985 C-44.09679818 74.52017269 -44.09887546 70.02425521 -44.11949348 65.52807617 C-44.13796189 61.29899274 -44.13175728 57.07062169 -44.10729408 52.84157562 C-44.10232173 51.29855446 -44.10568193 49.75547793 -44.11844254 48.21250153 C-44.21784132 35.15048713 -41.50459245 24.06682915 -32.46858215 14.25396729 C-27.36958038 9.09809932 -22.25941834 4.90725338 -15.46858215 2.25396729 C-14.63221883 1.91293095 -13.7958555 1.57189461 -12.93414783 1.22052383 C-8.53663579 -0.00595532 -4.54200252 -0.02305114 0 0 Z M40.76249695 19.02288818 C38.43491954 19.26396188 36.10619198 19.48803977 33.77653503 19.70806885 C29.83308791 20.08130779 25.89271396 20.47773102 21.95362854 20.89447021 C20.49519787 21.04750914 19.03623772 21.19560628 17.57673645 21.33807373 C6.49154806 22.44219115 -2.32404884 24.83213692 -10.71858215 32.44146729 C-11.4868634 33.11564697 -12.25514465 33.78982666 -13.04670715 34.48443604 C-19.77466908 42.17818604 -22.40205755 49.14197625 -23.28108215 59.25396729 C-23.38871887 60.26974854 -23.49635559 61.28552979 -23.60725403 62.33209229 C-23.917818 65.30436095 -24.19371662 68.2781994 -24.46858215 71.25396729 C-24.55117783 71.94774979 -24.6337735 72.64153229 -24.71887207 73.3563385 C-25.55067917 80.64363041 -25.63004812 87.87378906 -25.6365509 95.20318604 C-25.63977842 96.54627006 -25.6431435 97.88935377 -25.64663696 99.23243713 C-25.65259296 102.04211232 -25.65448095 104.85175695 -25.65388489 107.66143799 C-25.65380428 110.49158205 -25.66064631 113.321562 -25.6743927 116.15167236 C-25.75634649 133.28245257 -25.33710269 150.20860275 -23.46858215 167.25396729 C-23.17170082 170.15037638 -22.87542528 173.04684513 -22.58016968 175.94342041 C-21.56124719 184.87953857 -20.06595377 191.70763916 -13.46858215 198.25396729 C-12.75057434 198.98744385 -12.03256653 199.72092041 -11.2928009 200.47662354 C-3.26094152 208.1200683 4.28345068 210.82014937 15.15641785 212.31646729 C16.28015808 212.47929199 17.40389832 212.6421167 18.56169128 212.80987549 C27.28140786 214.03305463 36.0233924 215.03673127 44.78141785 215.94146729 C45.92562195 216.06078613 47.06982605 216.18010498 48.248703 216.30303955 C66.39502063 218.06073371 84.58720793 218.4216874 102.80778503 218.38433838 C105.89800444 218.37898187 108.9880778 218.38432555 112.07829285 218.39068604 C133.81322989 218.40112347 155.36138499 217.43131536 176.99015808 215.26202393 C180.25461844 214.93792287 183.52067852 214.63573842 186.78727722 214.33404541 C207.74084447 212.58118155 207.74084447 212.58118155 225.53141785 202.25396729 C226.14630066 201.71771729 226.76118347 201.18146729 227.3946991 200.62896729 C237.33207179 191.43636557 238.91492819 180.84185231 240.34391785 167.94146729 C240.44914764 167.03688782 240.55437744 166.13230835 240.66279602 165.20031738 C242.68270102 147.3719159 242.98804018 129.54907374 242.96891785 111.62896729 C242.96904877 110.34186859 242.96917969 109.0547699 242.96931458 107.72866821 C242.94374981 93.74161522 242.51618754 80.10350897 240.53141785 66.25396729 C240.33130177 64.2992372 240.14010188 62.34355683 239.96110535 60.38677979 C238.69128348 48.17179885 236.41554793 40.28645241 226.8790741 31.92974854 C216.67175456 23.95572752 206.30305799 22.57191129 193.71891785 21.25396729 C192.95045532 21.17158813 192.1819928 21.08920898 191.39024353 21.0043335 C187.34746463 20.57125628 183.30367759 20.15004043 179.25846863 19.74029541 C176.2910721 19.43870719 173.32631527 19.12223748 170.36296082 18.78326416 C127.63438528 13.91236932 83.4970764 14.49793775 40.76249695 19.02288818 Z " fill="#95C7DA" transform="translate(147.4685821533203,147.74603271484375)"/>
<path d="M0 0 C3.42275967 0.37521619 6.8492388 0.70685852 10.27606201 1.04290771 C12.50684636 1.27557858 14.73735204 1.51094906 16.96746826 1.74993896 C18.35530518 1.89072876 18.35530518 1.89072876 19.7711792 2.03436279 C28.24627588 3.04929167 36.83375837 5.37280846 43.52996826 10.87493896 C44.27762451 11.46532959 45.02528076 12.05572021 45.79559326 12.66400146 C53.35353578 20.53091648 56.40336439 27.31563282 57.65496826 38.12493896 C57.80578857 39.21935303 57.95660889 40.31376709 58.11199951 41.44134521 C59.65181272 52.95587765 60.44134167 64.42147595 60.55340576 76.03509521 C60.56588852 77.23461823 60.57837128 78.43414124 60.5912323 79.67001343 C60.62373326 83.55085625 60.64269138 87.43148062 60.65496826 91.31243896 C60.65712215 91.97291355 60.65927605 92.63338814 60.66149521 93.31387711 C60.70955005 111.61090495 60.21967271 129.74255542 58.09246826 147.93743896 C57.94524323 149.26462448 57.94524323 149.26462448 57.79504395 150.61862183 C56.06390198 165.75053983 52.20129215 175.22479031 40.27996826 185.24993896 C28.26340665 193.76929483 10.68289735 193.8306883 -3.55303955 195.13031006 C-6.1905112 195.3722312 -8.82628616 195.62857027 -11.46221924 195.88665771 C-32.03202333 197.84944256 -52.6014155 198.42282501 -73.25714111 198.38031006 C-76.35159164 198.37492755 -79.4458979 198.38031464 -82.54034424 198.38665771 C-100.8988431 198.39400881 -119.20236219 197.84241141 -137.47003174 195.93743896 C-138.7186499 195.80845215 -139.96726807 195.67946533 -141.25372314 195.54656982 C-149.88911314 194.62193394 -158.49999117 193.55782017 -167.09503174 192.31243896 C-168.68009521 192.09430542 -168.68009521 192.09430542 -170.29718018 191.87176514 C-178.92943035 190.54722886 -185.32049086 187.9732854 -191.84503174 182.06243896 C-192.63135986 181.36763428 -193.41768799 180.67282959 -194.22784424 179.95697021 C-201.52432795 172.03147929 -203.80951771 165.36997382 -205.03253174 154.68743896 C-205.18786377 153.52663818 -205.3431958 152.3658374 -205.50323486 151.16986084 C-207.78897463 133.34501466 -207.93607463 115.55099149 -207.96026611 97.60955811 C-207.96462388 94.84770302 -207.97843687 92.08616505 -208.00128174 89.32440186 C-208.49165389 28.74181334 -208.49165389 28.74181334 -194.67706299 14.08197021 C-185.04171086 4.99233715 -175.52287741 2.39297584 -162.53253174 1.12493896 C-161.02180228 0.96641212 -159.51114308 0.80721457 -158.00054932 0.6473999 C-154.02647163 0.23458958 -150.04993919 -0.14720314 -146.07220459 -0.52288818 C-143.81636343 -0.74075732 -141.56262808 -0.97333901 -139.30889893 -1.2119751 C-93.0511803 -6.07191385 -46.17728742 -5.16701145 0 0 Z M-183.74346924 23.03118896 C-184.18948486 23.59837646 -184.63550049 24.16556396 -185.09503174 24.74993896 C-185.55651611 25.31712646 -186.01800049 25.88431396 -186.49346924 26.46868896 C-197.20214408 42.02014033 -193.19104669 72.63276237 -193.11114502 90.99261475 C-193.09405426 94.95533218 -193.10424684 98.91744526 -193.12144089 102.88014221 C-193.17659488 117.79803401 -193.00370107 132.61834826 -191.44659424 147.46868896 C-191.33874603 148.54066528 -191.23089783 149.6126416 -191.11978149 150.71710205 C-190.04398228 159.62448633 -187.89853187 167.02952549 -180.89190674 172.96087646 C-173.42512096 177.39260184 -165.4433814 178.24003065 -156.97003174 179.31243896 C-155.80987549 179.47292725 -154.64971924 179.63341553 -153.45440674 179.79876709 C-127.95554028 183.13344028 -102.41259503 183.65328306 -76.73904419 183.62729645 C-74.12479143 183.62490907 -71.51055453 183.62601265 -68.89630127 183.62731934 C-43.35149507 183.62457821 -18.06297528 182.94223083 7.28759766 179.51312256 C9.35138403 179.24050525 11.41708821 178.99293812 13.48455811 178.74993896 C14.83045342 178.58611806 16.17632058 178.42206565 17.52215576 178.25775146 C18.69117432 178.11740479 19.86019287 177.97705811 21.06463623 177.8324585 C27.34808782 176.69408982 32.93431026 174.12625371 37.21746826 169.31243896 C42.44801009 161.54587686 43.25631609 154.44560802 43.96746826 145.37493896 C44.03000793 144.60804749 44.09254761 143.84115601 44.15698242 143.05102539 C45.47154638 126.29889167 45.60999993 109.51553679 45.64877701 92.7213974 C45.65486925 90.65846551 45.66611502 88.59561759 45.67849731 86.53271484 C45.75208407 72.400092 45.4716686 58.36012819 44.06903076 44.28900146 C43.96956146 43.1891391 43.87009216 42.08927673 43.76760864 40.95608521 C42.88904645 33.25852589 40.78208799 27.73189293 35.24481201 22.22650146 C29.05172179 18.09777465 23.59691958 17.07375129 16.27996826 16.24993896 C14.51766463 16.00674449 12.75599257 15.75894996 10.99481201 15.50775146 C0.59201062 14.04735651 -9.72656103 12.89783368 -20.22393799 12.46087646 C-23.72003174 12.24993896 -23.72003174 12.24993896 -26.45072937 11.74682617 C-30.15895821 11.18322842 -33.78469874 11.09473037 -37.52496338 11.08880615 C-38.66607826 11.0813588 -38.66607826 11.0813588 -39.83024597 11.07376099 C-42.3469028 11.05917653 -44.8634958 11.05233002 -47.38018799 11.04681396 C-48.25523924 11.04398659 -49.13029049 11.04115921 -50.03185844 11.03824615 C-54.69753186 11.02324007 -59.36317447 11.0140298 -64.02886963 11.00970459 C-67.80924491 11.00538681 -71.58938329 10.99176442 -75.36968994 10.96868896 C-132.38807622 7.3426254 -132.38807622 7.3426254 -183.74346924 23.03118896 Z " fill="#61432F" transform="translate(329.72003173828125,167.75006103515625)"/>
<path d="M0 0 C22 0 22 0 29 5 C31.7647118 8.5326873 31.46121812 12.9237182 31.5 17.25 C31.51293091 18.40278442 31.51293091 18.40278442 31.52612305 19.57885742 C31.41153979 25.33191706 30.12875829 27.88205997 26.1484375 32.05859375 C24.44464906 34.93880755 25.13953552 36.68717219 25.9375 39.875 C26.5921963 41.92742095 27.27972649 43.9696638 28 46 C28.57171205 47.83048155 29.13496642 49.66363838 29.6875 51.5 C29.93886719 52.2734375 30.19023437 53.046875 30.44921875 53.84375 C31 56 31 56 31 60 C27.37 60 23.74 60 20 60 C18.99680606 56.54256374 17.99730869 53.08413374 17 49.625 C16.57074219 48.14773438 16.57074219 48.14773438 16.1328125 46.640625 C15.86210937 45.69960938 15.59140625 44.75859375 15.3125 43.7890625 C15.06113281 42.91975098 14.80976563 42.05043945 14.55078125 41.15478516 C14 39 14 39 14 37 C12.68 37 11.36 37 10 37 C10 44.59 10 52.18 10 60 C6.7 60 3.4 60 0 60 C0 40.2 0 20.4 0 0 Z " fill="#F3E154" transform="translate(328,234)"/>
<path d="M0 0 C3.63 0 7.26 0 11 0 C11.18062988 0.82798096 11.36125977 1.65596191 11.54736328 2.5090332 C12.24782796 5.71864821 12.94868126 8.92817779 13.64987183 12.13763428 C13.9659797 13.58459581 14.28199976 15.03157653 14.59793091 16.47857666 C16.31581782 24.34488147 18.04098433 32.20935869 19.80078125 40.06640625 C20.07712402 41.30156982 20.3534668 42.5367334 20.63818359 43.80932617 C21.16400308 46.15495645 21.69162235 48.50018412 22.22119141 50.8449707 C22.45628418 51.89386475 22.69137695 52.94275879 22.93359375 54.0234375 C23.14040771 54.94044434 23.34722168 55.85745117 23.56030273 56.80224609 C24 59 24 59 24 61 C20.37 61 16.74 61 13 61 C11.86235649 56.73383684 11 53.43513689 11 49 C7.04 49 3.08 49 -1 49 C-1.66 52.96 -2.32 56.92 -3 61 C-6.3 61 -9.6 61 -13 61 C-12.4582521 53.71767908 -11.4912232 46.85842772 -9.78515625 39.765625 C-9.5693541 38.84336121 -9.35355194 37.92109741 -9.13121033 36.97088623 C-8.44859842 34.06223333 -7.75554263 31.15618294 -7.0625 28.25 C-6.60156665 26.28791227 -6.14127508 24.32567366 -5.68164062 22.36328125 C-5.23754756 20.47642863 -4.79290515 18.58970521 -4.34765625 16.703125 C-4.14237808 15.83318909 -3.93709991 14.96325317 -3.7256012 14.06695557 C-2.59749419 9.33934768 -1.37476573 4.66200958 0 0 Z " fill="#F4E154" transform="translate(236,233)"/>
<path d="M0 0 C22 0 22 0 28 4 C31.62884115 8.30397439 31.48579373 12.55933512 31.4375 17.9375 C31.4674707 19.11602539 31.4674707 19.11602539 31.49804688 20.31835938 C31.49354765 25.694928 30.52865774 28.7281268 27 33 C21.20825727 38.36795668 19.03722341 37 10 37 C10 44.59 10 52.18 10 60 C6.7 60 3.4 60 0 60 C0 40.2 0 20.4 0 0 Z " fill="#F5E152" transform="translate(155,234)"/>
<path d="M0 0 C8.25 0 16.5 0 25 0 C25 2.64 25 5.28 25 8 C20.05 8 15.1 8 10 8 C10 13.61 10 19.22 10 25 C13.96 25 17.92 25 22 25 C22 28.3 22 31.6 22 35 C18.04 35 14.08 35 10 35 C10 39.95 10 44.9 10 50 C15.28 50 20.56 50 26 50 C26 53.3 26 56.6 26 60 C17.42 60 8.84 60 0 60 C0 40.2 0 20.4 0 0 Z " fill="#F4E154" transform="translate(296,234)"/>
<path d="M0 0 C3.63 0 7.26 0 11 0 C12.98 6.27 14.96 12.54 17 19 C17.8971875 16.525 17.8971875 16.525 18.8125 14 C20.5129887 9.32214317 22.24272133 4.65678847 24 0 C27.3 0 30.6 0 34 0 C33.40955917 4.30757067 32.35461173 8.01544935 30.75 12.05078125 C24.52099762 28.37447818 21.47185799 42.30724255 22 60 C18.7 60 15.4 60 12 60 C12.05542969 58.55496094 12.11085938 57.10992187 12.16796875 55.62109375 C12.38111305 37.67970971 7.64365162 23.27106945 0.99389648 6.90307617 C0 4 0 4 0 0 Z " fill="#F5E152" transform="translate(257,234)"/>
<path d="M0 0 C3.63 0 7.26 0 11 0 C11 16.83 11 33.66 11 51 C15.95 51 20.9 51 26 51 C26 54.3 26 57.6 26 61 C17.42 61 8.84 61 0 61 C0 40.87 0 20.74 0 0 Z " fill="#F2E056" transform="translate(193,233)"/>
<path d="M0 0 C7 0 7 0 9.4375 1.875 C11.65403218 6.30806436 11.7734987 10.13572981 11 15 C9.4375 18.125 9.4375 18.125 7 20 C4.69 20 2.38 20 0 20 C0 13.4 0 6.8 0 0 Z " fill="#93C6DB" transform="translate(165,242)"/>
<path d="M0 0 C1.37734745 3.82596514 0.7995385 7.07499282 0 11 C-0.66 11.66 -1.32 12.32 -2 13 C-2.98205538 17.30353024 -3.13432947 21.46928765 -3.15821838 25.87167358 C-3.16315636 26.53833562 -3.16809434 27.20499765 -3.17318195 27.89186156 C-3.18846477 30.11198738 -3.19689237 32.33208449 -3.20532227 34.55224609 C-3.21490805 36.14917246 -3.22491854 37.74609632 -3.23532104 39.34301758 C-3.26230029 43.66895456 -3.28334754 47.99490237 -3.30332303 52.3208766 C-3.32522575 56.84525483 -3.35259343 61.36959994 -3.37937927 65.89395142 C-3.42924828 74.45731435 -3.47420855 83.02069572 -3.51740164 91.58409464 C-3.56682357 101.33497702 -3.62172329 111.08582616 -3.67708123 120.83667636 C-3.79081234 140.89108659 -3.89767063 160.94552857 -4 181 C-4.33 181 -4.66 181 -5 181 C-5.09362501 159.58085021 -5.16406803 138.16173437 -5.20724869 116.74242115 C-5.22783508 106.79606581 -5.25588035 96.84983795 -5.30175781 86.90356445 C-5.34174603 78.22991572 -5.36746129 69.55635935 -5.37635398 60.88262099 C-5.38154851 56.29396891 -5.39367493 51.70558098 -5.42292023 47.11701393 C-5.45027917 42.78892508 -5.4584041 38.46120659 -5.45243073 34.13303947 C-5.45352188 32.55333562 -5.46135302 30.97361805 -5.4768219 29.39398956 C-5.57292899 19.0641642 -4.71476316 9.42952632 0 0 Z " fill="#B3A5A2" transform="translate(94,166)"/>
<path d="M0 0 C7 0 7 0 8.9140625 1.6875 C10.14984729 4.31909927 10.4015206 6.10041402 10.375 9 C10.38273437 9.845625 10.39046875 10.69125 10.3984375 11.5625 C9.89827924 14.62229169 9.33860478 15.93820966 7 18 C4.69 18 2.38 18 0 18 C0 12.06 0 6.12 0 0 Z " fill="#92C5DD" transform="translate(338,243)"/>
<path d="M0 0 C3.6339297 1.26616176 5.98744842 2.61652087 8.6887207 5.34814453 C9.36904861 6.02869904 10.04937653 6.70925354 10.75032043 7.41043091 C11.4682225 8.14381683 12.18612457 8.87720276 12.92578125 9.6328125 C13.67337204 10.38464813 14.42096283 11.13648376 15.19120789 11.91110229 C17.57211702 14.30877412 19.94237 16.71667697 22.3125 19.125 C23.92704233 20.75459219 25.54226897 22.3835067 27.15820312 24.01171875 C31.11343638 27.99998937 35.0599764 31.99670609 39 36 C37.14746094 36.61254883 37.14746094 36.61254883 35 37 C32.640625 35.19921875 32.640625 35.19921875 30.25 32.6875 C29.45078125 31.86636719 28.6515625 31.04523438 27.828125 30.19921875 C26 28 26 28 26 26 C25.34 26 24.68 26 24 26 C24 25.34 24 24.68 24 24 C23.43829102 23.7628125 22.87658203 23.525625 22.29785156 23.28125 C19.47417342 21.70680643 17.52385158 19.78315455 15.234375 17.5 C13.90019531 16.1696875 13.90019531 16.1696875 12.5390625 14.8125 C11.61867187 13.884375 10.69828125 12.95625 9.75 12 C8.81414062 11.071875 7.87828125 10.14375 6.9140625 9.1875 C6.02976563 8.300625 5.14546875 7.41375 4.234375 6.5 C3.42194336 5.6853125 2.60951172 4.870625 1.77246094 4.03125 C0 2 0 2 0 0 Z " fill="#7A6051" transform="translate(202,83)"/>
<path d="M0 0 C0.66 0.33 1.32 0.66 2 1 C2.64598192 3.76172086 3.17242833 6.45606265 3.625 9.25 C3.7590625 10.01441406 3.893125 10.77882813 4.03125 11.56640625 C4.68302917 15.417224 5.17251743 19.07914938 5 23 C2.36 23 -0.28 23 -3 23 C-2.48351265 15.21191437 -1.55123466 7.65074958 0 0 Z " fill="#99C7D2" transform="translate(240,250)"/>
<path d="M0 0 C1.32 0 2.64 0 4 0 C4 0.66 4 1.32 4 2 C4.99 2.33 5.98 2.66 7 3 C7 3.66 7 4.32 7 5 C7.66 5 8.32 5 9 5 C11.125 6.875 11.125 6.875 13 9 C13 9.66 13 10.32 13 11 C13.598125 11.268125 14.19625 11.53625 14.8125 11.8125 C16.99847854 12.99917406 18.41332594 14.09599113 20 16 C20 16.66 20 17.32 20 18 C20.99 18.33 21.98 18.66 23 19 C24.75 20.3125 24.75 20.3125 26 22 C25.578125 24.10546875 25.578125 24.10546875 25 26 C21.43645168 22.46109324 17.87614125 18.91897325 14.31884766 15.3737793 C13.10717739 14.16715088 11.89461294 12.96141972 10.68115234 11.7565918 C8.9413478 10.02885937 7.20474035 8.29796998 5.46875 6.56640625 C4.92190552 6.02472305 4.37506104 5.48303986 3.81164551 4.92494202 C2.52197869 3.63546982 1.2580767 2.32031135 0 1 C0 0.67 0 0.34 0 0 Z " fill="#7B6253" transform="translate(188,89)"/>
<path d="M0 0 C7 0 7 0 9.4375 1.875 C11.6355471 6.27109421 11.33729606 10.17479248 11 15 C10.34 15 9.68 15 9 15 C8.67 11.04 8.34 7.08 8 3 C5.03 2.505 5.03 2.505 2 2 C1.67 7.94 1.34 13.88 1 20 C0.67 20 0.34 20 0 20 C0 13.4 0 6.8 0 0 Z " fill="#99C7D0" transform="translate(165,242)"/>
<path d="M0 0 C0.99 0.33 1.98 0.66 3 1 C-1.69766975 6.66129431 -6.74723372 11.85228904 -12 17 C-12.66 16.01 -13.32 15.02 -14 14 C-9.33333333 9.33333333 -4.66666667 4.66666667 0 0 Z " fill="#937E72" transform="translate(294,115)"/>
<path d="M0 0 C0.99 0 1.98 0 3 0 C1.61697836 3.97796945 -0.22850598 6.85932624 -2.875 10.125 C-3.55304688 10.97320312 -4.23109375 11.82140625 -4.9296875 12.6953125 C-6.82485144 14.8050233 -8.66951219 16.40105545 -11 18 C-11.33 17.01 -11.66 16.02 -12 15 C-11.01 14.67 -10.02 14.34 -9 14 C-7.95236659 12.15551411 -7.95236659 12.15551411 -7 10 C-6.00735947 8.60451067 -4.98549543 7.22941178 -3.9375 5.875 C-1.76773805 3.06372737 -1.76773805 3.06372737 0 0 Z " fill="#876F63" transform="translate(413,365)"/>
<path d="M0 0 C3.62498242 -0.02946035 7.24993332 -0.04695131 10.875 -0.0625 C11.88820313 -0.07087891 12.90140625 -0.07925781 13.9453125 -0.08789062 C20.36263015 -0.10845895 26.62990957 0.21676321 33 1 C33 1.33 33 1.66 33 2 C21.8894796 3.70223294 11.08703067 2.27292075 0 1 C0 0.67 0 0.34 0 0 Z " fill="#93C1D0" transform="translate(300,181)"/>
<path d="M0 0 C0.66 0.33 1.32 0.66 2 1 C-1.88182102 6.9256586 -5.72338959 10.68645948 -12 14 C-9.38243868 8.32861715 -5.24688193 3.43065357 0 0 Z " fill="#8F7A6E" transform="translate(112,144)"/>
<path d="M0 0 C5.26964527 2.63482263 8.97903554 6.79943911 13 11 C12.67 11.66 12.34 12.32 12 13 C7.35114974 10.12214031 3.65477745 7.08987001 0 3 C0 2.01 0 1.02 0 0 Z " fill="#8B7467" transform="translate(399,144)"/>
<path d="M0 0 C2.475 0.495 2.475 0.495 5 1 C5 1.66 5 2.32 5 3 C5.66 3 6.32 3 7 3 C7 3.66 7 4.32 7 5 C7.66 5 8.32 5 9 5 C11.1875 7.3125 11.1875 7.3125 13 10 C12.67 10.99 12.34 11.98 12 13 C7.32902896 9.60293015 3.57901438 5.507289 0 1 C0 0.67 0 0.34 0 0 Z " fill="#856D5F" transform="translate(218,119)"/>
<path d="M0 0 C2.00317083 3.00475625 3.04325893 5.68935172 4.21875 9.0625 C5.03159143 11.26761961 5.03159143 11.26761961 7 14 C6.67 14.66 6.34 15.32 6 16 C6.99 16.33 7.98 16.66 9 17 C9 18.65 9 20.3 9 22 C3.86807552 17.26283894 1.54517985 10.69577936 0 4 C0 2.68 0 1.36 0 0 Z " fill="#A7968D" transform="translate(90,348)"/>
<path d="M0 0 C1.32 0 2.64 0 4 0 C4 0.66 4 1.32 4 2 C4.99 2.33 5.98 2.66 7 3 C7 3.66 7 4.32 7 5 C7.66 5 8.32 5 9 5 C10.6875 6.25 10.6875 6.25 12 8 C11.58203125 10.109375 11.58203125 10.109375 11 12 C9.16364422 10.19047409 7.33083792 8.37759362 5.5 6.5625 C4.97535156 6.04623047 4.45070312 5.52996094 3.91015625 4.99804688 C2.58775448 3.68423213 1.29164432 2.34406495 0 1 C0 0.67 0 0.34 0 0 Z " fill="#826A5D" transform="translate(176,77)"/>
<path d="M0 0 C0.33 0 0.66 0 1 0 C1.33 6.6 1.66 13.2 2 20 C1.01 20.33 0.02 20.66 -1 21 C-0.67 14.07 -0.34 7.14 0 0 Z " fill="#6B5B4D" transform="translate(374,291)"/>
<path d="M0 0 C1.89492187 0.01353516 1.89492187 0.01353516 3.828125 0.02734375 C4.79234375 0.03894531 5.7565625 0.05054688 6.75 0.0625 C6.75 0.3925 6.75 0.7225 6.75 1.0625 C-0.34326321 2.78580907 -6.95968976 3.3119783 -14.25 3.0625 C-9.43910622 -0.14476252 -5.75185764 -0.05325794 0 0 Z " fill="#937E73" transform="translate(141.25,133.9375)"/>
<path d="M0 0 C0.33 0 0.66 0 1 0 C1.83854735 6.90188971 2.01593448 13.11422188 1 20 C-2.52509388 13.82760241 -1.14912789 6.75112637 0 0 Z " fill="#664D3C" transform="translate(125,202)"/>
<path d="M0 0 C5.29158974 1.40071493 7.77478044 4.85487245 11 9 C6.32197941 8.72482232 4.25361247 6.66806114 1.13671875 3.47265625 C0 2 0 2 0 0 Z " fill="#7B6051" transform="translate(240,121)"/>
<path d="M0 0 C1.15469014 3.94157386 0.82245557 6.96249082 0 11 C-0.66 11.66 -1.32 12.32 -2 13 C-2.39764263 14.98821313 -2.73775349 16.98944339 -3 19 C-3.33 19 -3.66 19 -4 19 C-4.53699151 11.88486245 -2.69707634 6.55004254 0 0 Z " fill="#A39188" transform="translate(94,166)"/>
<path d="M0 0 C5.29158974 1.40071493 7.77478044 4.85487245 11 9 C8.625 8.75 8.625 8.75 6 8 C4.9375 6.0625 4.9375 6.0625 4 4 C1.9664052 2.73195434 1.9664052 2.73195434 0 2 C0 1.34 0 0.68 0 0 Z " fill="#785E4E" transform="translate(192,73)"/>
<path d="M0 0 C1.32 0 2.64 0 4 0 C4 0.66 4 1.32 4 2 C4.99 2.33 5.98 2.66 7 3 C7 3.66 7 4.32 7 5 C7.66 5 8.32 5 9 5 C9.33 6.65 9.66 8.3 10 10 C2.51708428 3.84965831 2.51708428 3.84965831 0 0 Z " fill="#80685A" transform="translate(188,89)"/>
<path d="M0 0 C1.87939453 -0.2487793 1.87939453 -0.2487793 4.1328125 -0.07421875 C5.34130859 0.00795898 5.34130859 0.00795898 6.57421875 0.09179688 C7.41597656 0.16462891 8.25773438 0.23746094 9.125 0.3125 C10.39923828 0.4043457 10.39923828 0.4043457 11.69921875 0.49804688 C13.80053665 0.65151391 15.90045124 0.82397722 18 1 C18 1.33 18 1.66 18 2 C11.4 2.33 4.8 2.66 -2 3 C-1.34 2.01 -0.68 1.02 0 0 Z " fill="#8AABB3" transform="translate(197,164)"/>
<path d="M0 0 C0.33 0 0.66 0 1 0 C1.05449838 1.72880982 1.09301688 3.45812712 1.125 5.1875 C1.14820313 6.15042969 1.17140625 7.11335938 1.1953125 8.10546875 C0.9913544 11.12812778 0.26874632 13.26769985 -1 16 C-1.33 16 -1.66 16 -2 16 C-2.2396943 10.36718401 -1.38529821 5.45461169 0 0 Z " fill="#E6DE61" transform="translate(226,274)"/>
<path d="M0 0 C4.29 0.33 8.58 0.66 13 1 C9 4 9 4 5.9375 3.875 C3 3 3 3 0 0 Z " fill="#8F786D" transform="translate(352,425)"/>
<path d="M0 0 C0.66 0 1.32 0 2 0 C4.1875 2.25 4.1875 2.25 6 5 C5.67 6.32 5.34 7.64 5 9 C3.02 6.36 1.04 3.72 -1 1 C-0.67 0.67 -0.34 0.34 0 0 Z " fill="#856D60" transform="translate(100,370)"/>
<path d="M0 0 C1.6857258 2.57816887 2.00779313 3.87530993 1.8125 7 C0.99589479 10.01515769 0.04996025 11.68265363 -2 14 C-2.1799928 8.78020872 -1.97094808 4.92737019 0 0 Z " fill="#90BAC6" transform="translate(106,176)"/>
<path d="M0 0 C0.33 0.66 0.66 1.32 1 2 C0.22265625 3.9453125 0.22265625 3.9453125 -0.9375 6.125 C-1.31777344 6.84945313 -1.69804687 7.57390625 -2.08984375 8.3203125 C-2.39019531 8.87460937 -2.69054687 9.42890625 -3 10 C-3.66 8.68 -4.32 7.36 -5 6 C-4.34 5.34 -3.68 4.68 -3 4 C-3 3.01 -3 2.02 -3 1 C-2.01 0.67 -1.02 0.34 0 0 Z " fill="#9D8A81" transform="translate(165,411)"/>
<path d="M0 0 C4.04420651 1.77945087 7.46078487 4.39529673 11 7 C10.34 7.66 9.68 8.32 9 9 C7.49704815 7.69088122 5.99770689 6.37761608 4.5 5.0625 C3.6646875 4.33160156 2.829375 3.60070312 1.96875 2.84765625 C1.3190625 2.23792969 0.669375 1.62820313 0 1 C0 0.67 0 0.34 0 0 Z " fill="#5E3B26" transform="translate(114,368)"/>
<path d="M0 0 C0 0.33 0 0.66 0 1 C-1.98 1 -3.96 1 -6 1 C-6 1.66 -6 2.32 -6 3 C-8.97 2.67 -11.94 2.34 -15 2 C-15 1.67 -15 1.34 -15 1 C-9.91913204 0.15318867 -5.15171623 -0.09038099 0 0 Z " fill="#6B5C4F" transform="translate(324,348)"/>
<path d="M0 0 C0 0.66 0 1.32 0 2 C1.98 2 3.96 2 6 2 C6 2.33 6 2.66 6 3 C1.1666528 3.08333357 -3.23692563 2.95261487 -8 2 C-4.91190305 0.23537317 -3.76687864 0 0 0 Z " fill="#6A594B" transform="translate(308,178)"/>
<path d="M0 0 C0.33 1.32 0.66 2.64 1 4 C-0.32 4.99 -1.64 5.98 -3 7 C-3.33 6.01 -3.66 5.02 -4 4 C-2.68 2.68 -1.36 1.36 0 0 Z " fill="#887164" transform="translate(284,125)"/>
<path d="M0 0 C0.99 0.33 1.98 0.66 3 1 C1.35 2.65 -0.3 4.3 -2 6 C-2.33 5.01 -2.66 4.02 -3 3 C-2.01 2.01 -1.02 1.02 0 0 Z " fill="#8B7569" transform="translate(299,110)"/>
<path d="M0 0 C0.99 0.495 0.99 0.495 2 1 C2.40729228 3.32156597 2.74438677 5.6568787 3 8 C2.01 8 1.02 8 0 8 C0 5.36 0 2.72 0 0 Z " fill="#694C3C" transform="translate(175,69)"/>
</svg>
